# File created by Blade
# Date/Time:  Wed Jan 21 17:10:37 2015
# Frame Rate: 120.000 fps
#------------------------------------------------------
:FULLY-SPECIFIED
:DEGREES
1277
root 18.172731 34.661033 -19.286780 -179.370939 1.554813 -175.090858
Spine 27.714155 8.764907 1.575678
Head 3.591180 -7.833882 9.447531
LeftShoulder 12.050184 -34.880186 2.778393
LeftArm 41.105463 37.165595 -62.287197
LeftForeArm 18.115944 -0.000000 44.470212
LeftHand -6.680690 -0.000000 16.502900
LeftHandThumb1 -26.253704 0.000000 33.147579
RightShoulder 8.120662 0.766579 0.898224
RightArm 62.906058 -8.912428 55.993674
RightForeArm -34.283080 -0.000000 40.966014
RightHand -4.715915 -0.000000 -2.913134
RightHandThumb1 -24.326973 -0.000000 -32.862282
LeftUpLeg -23.072555 10.539621 3.404344
LeftLeg 31.477707 -0.000000 -0.000000
LeftFoot -25.728171 27.868878 -13.763808
LeftToeBase 22.848069 -0.000000 -0.000000
RightUpLeg -26.265926 -1.253091 2.760274
RightLeg 39.528329 -0.000000 -0.000000
RightFoot -20.171060 -20.136508 19.294461
RightToeBase 11.654312 -0.000000 -0.000000
1278
root 18.163044 34.823063 -19.419805 -179.501333 1.511408 -175.018567
Spine 26.940409 8.602674 1.697270
Head 3.831827 -7.864037 9.337124
LeftShoulder 11.899110 -34.572123 2.661070
LeftArm 39.904560 38.119419 -63.209218
LeftForeArm 19.368261 0.000000 45.249549
LeftHand -7.248434 -0.000000 16.682637
LeftHandThumb1 -26.253704 0.000000 33.147579
RightShoulder 8.088405 0.575522 0.945350
RightArm 62.127930 -9.643672 56.641965
RightForeArm -33.808980 -0.000000 40.934043
RightHand -4.773327 -0.000000 -4.159467
RightHandThumb1 -24.326973 -0.000000 -32.862282
LeftUpLeg -21.870765 10.505883 3.520102
LeftLeg 29.872842 -0.000000 -0.000000
LeftFoot -25.122858 27.897850 -13.800896
LeftToeBase 22.728063 -0.000000 -0.000000
RightUpLeg -25.250196 -1.313918 2.721871
RightLeg 38.924418 -0.000000 -0.000000
RightFoot -20.193644 -19.938774 19.353859
RightToeBase 11.415239 -0.000000 -0.000000
1279
root 18.158808 34.971066 -19.554856 -179.632713 1.448415 -174.947965
Spine 26.157993 8.407917 1.793429
Head 4.087830 -7.855960 9.212127
LeftShoulder 11.626359 -34.224268 2.588587
LeftArm 38.753660 39.079018 -64.108616
LeftForeArm 20.615446 -0.000000 45.932765
LeftHand -7.790111 -0.000000 16.721819
LeftHandThumb1 -26.253704 0.000000 33.147579
RightShoulder 7.992422 0.448013 0.919305
RightArm 61.227767 -10.451865 57.457432
RightForeArm -33.598763 0.000000 40.896485
RightHand -5.243421 -0.000000 -4.957693
RightHandThumb1 -24.326973 -0.000000 -32.862282
LeftUpLeg -20.692657 10.386095 3.651396
LeftLeg 28.313000 -0.000000 -0.000000
LeftFoot -24.540847 27.995131 -13.844289
LeftToeBase 22.573948 -0.000000 -0.000000
RightUpLeg -24.233985 -1.404165 2.691347
RightLeg 38.377717 -0.000000 -0.000000
RightFoot -20.426726 -19.701850 19.411424
RightToeBase 11.722204 -0.000000 -0.000000
1280
root 18.155085 35.107307 -19.693039 -179.822768 1.363546 -174.903269
Spine 25.443572 8.170281 1.862988
Head 4.327489 -7.797379 9.091949
LeftShoulder 11.339614 -33.833416 2.496954
LeftArm 37.532384 39.883095 -65.037127
LeftForeArm 21.576880 -0.000000 46.565300
LeftHand -8.303658 0.000000 17.044539
LeftHandThumb1 -26.253704 0.000000 33.147579
RightShoulder 7.917875 0.339352 0.952124
RightArm 60.339305 -11.297283 57.962958
RightForeArm -33.323128 -0.000000 40.804056
RightHand -5.473788 -0.000000 -5.597426
RightHandThumb1 -24.326973 -0.000000 -32.862282
LeftUpLeg -19.494856 10.301691 3.756934
LeftLeg 26.810656 -0.000000 -0.000000
LeftFoot -24.021936 28.019167 -13.878753
LeftToeBase 22.569470 -0.000000 -0.000000
RightUpLeg -23.166042 -1.529685 2.653444
RightLeg 37.850379 -0.000000 -0.000000
RightFoot -20.669976 -19.434073 19.461557
RightToeBase 11.236161 -0.000000 -0.000000
